<svg width="200" height="200" xmlns="http://www.w3.org/2000/svg" fill="none">
 <g>
  <title>Layer 1</title>
  <path d="m200,100c0,55.228 -44.772,100 -100,100c-55.2285,0 -100,-44.772 -100,-100c0,-55.2285 44.7715,-100 100,-100c55.228,0 100,44.7715 100,100z" fill="#f16b1a" id="svg_1"/>
  <path d="m180.205,102.224l-0.329,2.019l-15.211,0.596l-0.092,0.564l14.251,5.289l-0.716,4.386l-15.192,0.487l-0.092,0.564l14.233,5.398l-0.33,2.019l-14.798,-5.623l0.709,-4.343l15.196,-0.508l0.092,-0.565l-14.247,-5.31l0.708,-4.343l15.818,-0.63z" fill="#0D0D0C" id="svg_2"/>
  <path d="m167.815,124.737c2.08,1.02 3.501,2.453 4.263,4.297c0.762,1.843 0.643,3.786 -0.358,5.827c-0.995,2.028 -2.455,3.305 -4.379,3.831c-1.924,0.527 -3.927,0.28 -6.007,-0.741c-2.094,-1.027 -3.522,-2.462 -4.284,-4.306c-0.762,-1.844 -0.645,-3.78 0.349,-5.808c1.001,-2.041 2.464,-3.324 4.388,-3.851c1.925,-0.526 3.934,-0.276 6.028,0.751zm-0.94,1.916c-1.673,-0.82 -3.206,-1.074 -4.601,-0.762c-1.395,0.313 -2.466,1.233 -3.216,2.76c-0.749,1.528 -0.817,2.932 -0.204,4.213c0.607,1.294 1.747,2.351 3.419,3.171c1.659,0.814 3.186,1.065 4.581,0.752c1.388,-0.299 2.457,-1.212 3.206,-2.74c0.75,-1.527 0.821,-2.938 0.214,-4.232c-0.607,-1.294 -1.74,-2.348 -3.399,-3.162z" fill="#0D0D0C" id="svg_3"/>
  <path d="m153.06,136.26l11.954,9.883l-3.379,4.086c-1.29,1.56 -2.514,2.546 -3.673,2.958c-1.168,0.423 -2.38,0.116 -3.634,-0.921c-1.605,-1.327 -1.879,-2.895 -0.821,-4.704l-0.441,-0.364l-1.234,1.492c-0.579,0.701 -1.208,0.771 -1.886,0.21l-4.358,-3.603l1.36,-1.645l4.68,3.87l4.752,-5.748l-4.68,-3.869l1.36,-1.645zm4.744,6.691l-2.018,2.442c-0.374,0.452 -0.662,0.823 -0.864,1.113c-0.211,0.301 -0.393,0.626 -0.548,0.974c-0.164,0.359 -0.232,0.683 -0.205,0.973c0.028,0.289 0.135,0.596 0.322,0.922c0.199,0.336 0.501,0.671 0.908,1.008c0.407,0.336 0.788,0.566 1.144,0.688c0.355,0.123 0.677,0.171 0.967,0.143c0.289,-0.027 0.594,-0.155 0.916,-0.384c0.313,-0.217 0.598,-0.457 0.854,-0.721c0.247,-0.253 0.557,-0.605 0.931,-1.057l2.019,-2.442l-4.426,-3.659z" fill="#0D0D0C" id="svg_4"/>
  <path d="m143.395,166.952l2.731,-11.899l-12.217,-0.372l2.472,-1.911l9.98,0.321l-3.889,-5.03l1.689,-1.305l9.486,12.271l-1.689,1.305l-3.888,-5.03l-2.204,9.739l-2.471,1.911z" fill="#0D0D0C" id="svg_5"/>
  <path d="m133.303,172.999l-1.957,0.595l-7.241,-13.39l-0.547,0.167l1.536,15.122l-4.252,1.292l-7.136,-13.422l-0.547,0.167l1.431,15.154l-1.958,0.595l-1.477,-15.761l4.21,-1.279l7.156,13.415l0.548,-0.167l-1.515,-15.128l4.21,-1.279l7.539,13.919z" fill="#0D0D0C" id="svg_6"/>
  <path d="m98.8661,177.781l3.4729,-0.147l-0.501,-11.804l-3.4733,0.148l-0.0784,-1.846l9.0777,-0.386l0.079,1.846l-3.473,0.148l0.501,11.803l3.473,-0.147l0.078,1.846l-9.0775,0.386l-0.0784,-1.847z" fill="#0D0D0C" id="svg_7"/>
  <path d="m81.6968,177.656l0.2765,-1.828l5.2641,0.797l2.0441,-13.508l2.11,0.319l-2.0441,13.508l5.264,0.797l-0.2765,1.827l-12.6381,-1.912z" fill="#0D0D0C" id="svg_8"/>
  <path d="m66.5361,172.267l-2.001,-0.803l5.7739,-14.395l2.001,0.803l-2.4979,6.228l8.2287,3.3l2.498,-6.228l1.9806,0.795l-5.7739,14.395l-1.9806,-0.794l2.588,-6.453l-8.2288,-3.3l-2.588,6.452z" fill="#0D0D0C" id="svg_9"/>
  <path d="m63.4754,153.297l-10.4371,11.473l-3.1571,-2.872l7.0919,-13.713l-0.4394,-0.4l-12.9829,8.354l-3.1571,-2.872l10.4371,-11.473l1.5786,1.436l-9.0603,9.96l-1.2375,0.837l0.4231,0.385l13.048,-8.295l3.1571,2.872l-7.0431,13.758l0.4394,0.399l0.7005,-1.325l9.0603,-9.96l1.5785,1.436z" fill="#0D0D0C" id="svg_10"/>
  <path d="m49.5392,139.667l-12.8678,8.659l-5.5148,-8.195l1.5332,-1.032l4.3234,6.425l4.125,-2.776l-3.7093,-5.512l1.5332,-1.031l3.7093,5.512l4.1432,-2.788l-4.3234,-6.425l1.5332,-1.032l5.5148,8.195z" fill="#0D0D0C" id="svg_11"/>
  <path d="m19.8508,95.9748l0.3757,-2.0113l15.2198,-0.2457l0.105,-0.5623l-14.1252,-5.6149l0.8159,-4.3684l15.1997,-0.1377l0.105,-0.5623l-14.105,-5.723l0.3757,-2.0112l14.6646,5.9618l-0.8078,4.3252l-15.2037,0.1593l-0.105,0.5623l14.1212,5.6365l-0.8079,4.3252l-15.828,0.2665z" fill="#0D0D0C" id="svg_12"/>
  <path d="m32.6772,73.8935c-2.0573,-1.0665 -3.4464,-2.5299 -4.1671,-4.3903c-0.7207,-1.8603 -0.5579,-3.7997 0.4882,-5.818c1.0395,-2.0052 2.527,-3.2496 4.4627,-3.7331c1.9356,-0.4834 3.9321,-0.1919 5.9895,0.8745c2.0703,1.0732 3.4659,2.5399 4.1866,4.4003c0.7207,1.8604 0.5613,3.7932 -0.4781,5.7985c-1.0462,2.0183 -2.5371,3.2692 -4.4727,3.7526c-1.9357,0.4835 -3.9387,0.1886 -6.0091,-0.8845zm0.9821,-1.8946c1.6537,0.8572 3.1812,1.1451 4.5826,0.8638c1.4013,-0.2814 2.4935,-1.1773 3.2764,-2.6877c0.783,-1.5105 0.8821,-2.9129 0.2975,-4.2071c-0.5779,-1.3073 -1.6937,-2.3895 -3.3474,-3.2467c-1.6407,-0.8505 -3.1617,-1.135 -4.5631,-0.8537c-1.3945,0.2683 -2.4833,1.1577 -3.2663,2.6682c-0.7829,1.5105 -0.8854,2.9193 -0.3076,4.2266c0.5779,1.3073 1.6872,2.3861 3.3279,3.2366z" fill="#0D0D0C" id="svg_13"/>
  <path d="m47.5666,62.7874l-11.7348,-10.1417l3.4669,-4.0115c1.3235,-1.5314 2.569,-2.4903 3.7367,-2.8769c1.1772,-0.3977 2.3817,-0.0643 3.6135,1.0003c1.5757,1.3618 1.8151,2.9353 0.7181,4.7205l0.4327,0.374l1.2659,-1.4647c0.5946,-0.688 1.2248,-0.7443 1.8906,-0.1689l4.2778,3.6971l-1.3954,1.6145l-4.594,-3.9704l-4.8767,5.6427l4.5941,3.9704l-1.3954,1.6146zm-4.5968,-6.7933l2.0715,-2.3969c0.3836,-0.4439 0.6794,-0.8086 0.8873,-1.0941c0.2176,-0.2966 0.4074,-0.6172 0.5695,-0.9617c0.1717,-0.3557 0.247,-0.6783 0.2259,-0.9679c-0.0211,-0.2896 -0.1217,-0.5995 -0.3017,-0.9295c-0.1911,-0.3396 -0.4864,-0.6821 -0.8859,-1.0273c-0.3994,-0.3453 -0.7755,-0.583 -1.1281,-0.7133c-0.3527,-0.1303 -0.6738,-0.1849 -0.9634,-0.1638c-0.2896,0.021 -0.598,0.1423 -0.925,0.3637c-0.3174,0.2103 -0.6071,0.4445 -0.8691,0.7028c-0.2523,0.2471 -0.5703,0.5926 -0.9539,1.0365l-2.0715,2.3969l4.3444,3.7546z" fill="#0D0D0C" id="svg_14"/>
  <path d="m57.9619,32.194l-2.9906,11.8365l12.2057,0.6391l-2.5129,1.8561l-9.9711,-0.5392l3.7776,5.1141l-1.7166,1.2679l-9.2151,-12.4757l1.7166,-1.2678l3.7775,5.1141l2.416,-9.689l2.5129,-1.8561z" fill="#0D0D0C" id="svg_15"/>
  <path d="m67.939,26.3803l1.9707,-0.5502l6.9346,13.5505l0.551,-0.1538l-1.1923,-15.1535l4.2804,-1.1948l6.8287,13.58l0.551,-0.1538l-1.0863,-15.183l1.9707,-0.5501l1.1188,15.7906l-4.238,1.183l-6.8499,-13.5741l-0.5509,0.1538l1.171,15.1594l-4.238,1.183l-7.2215,-14.087z" fill="#0D0D0C" id="svg_16"/>
  <path d="m102.881,22.2676l-3.4757,0.0671l0.228,11.8118l3.4757,-0.0671l0.035,1.8477l-9.084,0.1753l-0.0357,-1.8477l3.4754,-0.067l-0.228,-11.8118l-3.4754,0.067l-0.0356,-1.8476l9.0843,-0.1754l0.036,1.8477z" fill="#0D0D0C" id="svg_17"/>
  <path d="m119.667,22.7117l-0.318,1.8203l-5.245,-0.9173l-2.354,13.4576l-2.102,-0.3677l2.354,-13.4576l-5.244,-0.9174l0.318,-1.8204l12.591,2.2025z" fill="#0D0D0C" id="svg_18"/>
  <path d="m134.811,28.392l1.982,0.8473l-6.095,14.2621l-1.983,-0.8473l2.637,-6.1701l-8.152,-3.4842l-2.637,6.1701l-1.963,-0.8386l6.096,-14.2622l1.962,0.8387l-2.732,6.3927l8.153,3.4842l2.732,-6.3927z" fill="#0D0D0C" id="svg_19"/>
  <path d="m137.483,47.3338l10.684,-11.2426l3.094,2.9402l-7.389,13.5552l0.431,0.4092l13.162,-8.0689l3.093,2.9403l-10.685,11.2425l-1.546,-1.4701l9.275,-9.7595l1.255,-0.81l-0.414,-0.394l-13.226,8.0082l-3.094,-2.9402l7.342,-13.6007l-0.431,-0.4092l-0.729,1.3101l-9.275,9.7596l-1.547,-1.4701z" fill="#0D0D0C" id="svg_20"/>
  <path d="m151.371,61.5057l13.086,-8.3261l5.302,8.3341l-1.559,0.992l-4.157,-6.5336l-4.195,2.6691l3.567,5.6055l-1.559,0.9921l-3.567,-5.6056l-4.214,2.6809l4.158,6.5336l-1.56,0.992l-5.302,-8.334z" fill="#0D0D0C" id="svg_21"/>
  <circle cx="170.735" cy="82.3784" r="3.5" fill="#0D0D0C" id="svg_22"/>
  <circle cx="29.1455" cy="116.176" r="3.5" fill="#0D0D0C" id="svg_23"/>
  <path id="svg_24" d="m240.50767,63.54638l0.56913,0l0.17587,-0.54067l0.17587,0.54067l0.56913,0l-0.46044,0.33415l0.17588,0.54067l-0.46044,-0.33416l-0.46044,0.33416l0.17588,-0.54067l-0.46044,-0.33415z" fill="#0D0D0C"/>
  <path id="svg_25" d="m224.01301,84.8298l0.56913,0l0.17587,-0.54067l0.17587,0.54067l0.56913,0l-0.46044,0.33415l0.17588,0.54067l-0.46044,-0.33416l-0.46044,0.33416l0.17588,-0.54067l-0.46044,-0.33415z" fill="#0D0D0C"/>
 </g>

</svg>