<?xml version="1.0" standalone="no"?>
<!DOCTYPE svg PUBLIC "-//W3C//DTD SVG 20010904//EN"
 "http://www.w3.org/TR/2001/REC-SVG-20010904/DTD/svg10.dtd">
<svg version="1.0" xmlns="http://www.w3.org/2000/svg"
 width="833.000000pt" height="833.000000pt" viewBox="0 0 833.000000 833.000000"
 preserveAspectRatio="xMidYMid meet">

<g transform="translate(0.000000,833.000000) scale(0.100000,-0.100000)"
fill="#000000" stroke="none">
<path d="M4095 7578 c-60 -130 -120 -279 -136 -339 l-12 -45 -79 155 c-43 86
-97 188 -121 226 l-43 70 -62 -3 c-113 -5 -112 1 -7 -157 79 -118 228 -368
238 -399 2 -6 29 -6 71 0 l67 9 48 115 c27 63 71 166 100 227 28 62 51 119 52
125 0 15 67 -167 130 -353 l43 -127 65 -4 c48 -4 68 -1 74 9 49 82 203 303
276 396 51 65 90 121 87 124 -3 3 -37 11 -76 18 l-70 12 -89 -131 c-49 -72
-111 -172 -138 -223 l-49 -92 -18 77 c-17 72 -86 274 -127 368 l-18 44 -79 0
-79 0 -48 -102z"/>
<path d="M4956 7308 c-37 -150 -70 -278 -73 -285 -4 -12 102 -41 112 -31 13
13 165 552 158 558 -9 8 -94 30 -115 30 -9 0 -35 -87 -82 -272z"/>
<path d="M3106 7535 c-43 -13 -82 -27 -85 -32 -3 -4 -48 -64 -99 -133 -52 -69
-110 -154 -130 -190 l-36 -64 -58 122 c-31 67 -62 122 -67 122 -6 0 -35 -11
-66 -25 l-56 -24 32 -63 c36 -72 240 -461 244 -466 4 -4 105 47 105 52 0 2
-21 48 -47 100 -49 104 -49 105 -5 164 l18 23 89 -32 c50 -17 139 -53 199 -80
l109 -48 70 19 c38 11 72 22 74 24 10 9 -264 133 -420 190 l-47 18 32 45 c39
54 207 252 231 272 20 16 22 31 5 30 -7 0 -49 -11 -92 -24z"/>
<path d="M5264 7494 c-4 -14 -3 -28 0 -32 4 -3 68 -28 143 -54 75 -26 140 -51
145 -56 5 -5 -34 -107 -92 -238 -56 -126 -104 -234 -106 -240 -3 -6 3 -14 13
-17 10 -2 35 -12 56 -21 l38 -16 114 235 c64 132 119 235 127 235 7 0 74 -32
148 -71 l135 -70 18 23 c18 21 18 23 0 36 -80 60 -479 234 -669 291 l-64 19
-6 -24z"/>
<path d="M2213 7116 c-94 -30 -249 -132 -377 -248 l-60 -54 193 -215 c106
-118 198 -214 204 -214 11 0 86 56 87 65 0 3 -36 50 -81 103 l-81 97 24 20
c47 40 124 88 161 99 49 17 77 7 182 -65 l82 -56 52 32 c29 18 49 36 44 40 -4
4 -47 37 -96 73 -85 65 -135 85 -177 74 -24 -6 -26 6 -4 24 44 36 60 142 28
188 -33 47 -103 61 -181 37z m70 -117 c24 -30 21 -58 -12 -110 -23 -38 -180
-173 -210 -182 -8 -2 -131 140 -131 151 0 4 17 21 38 38 149 122 267 161 315
103z"/>
<path d="M5983 6892 c-88 -130 -163 -242 -166 -248 -6 -11 89 -82 97 -73 1 2
37 52 80 112 43 59 79 107 80 107 9 0 209 -157 289 -227 l98 -86 -98 -99 -97
-98 39 -40 c21 -22 43 -40 47 -40 13 0 428 392 428 404 0 7 -20 32 -45 56
l-45 44 -93 -91 -92 -91 -93 82 c-51 46 -139 118 -197 161 l-104 79 22 30 c11
17 45 64 75 104 29 41 52 75 50 76 -8 6 -94 63 -104 69 -6 3 -78 -94 -171
-231z"/>
<path d="M1547 6516 c-32 -14 -68 -33 -80 -42 -204 -169 -316 -376 -305 -565
8 -128 69 -204 185 -230 138 -31 292 66 433 275 148 221 169 382 64 504 -71
84 -182 105 -297 58z m153 -111 c15 -8 41 -30 58 -49 79 -90 66 -221 -34 -369
-55 -79 -108 -128 -181 -164 -107 -52 -217 -17 -271 88 -82 157 90 458 293
510 38 10 99 3 135 -16z"/>
<path d="M3907 6238 c-14 -51 -29 -110 -33 -132 -6 -33 -8 -36 -17 -20 -5 11
-39 63 -75 117 -46 69 -69 96 -81 93 -9 -2 -50 -12 -92 -21 -90 -19 -89 -16
-89 -177 l0 -99 -59 73 c-33 40 -72 86 -89 101 l-29 28 -74 -28 c-41 -16 -74
-33 -74 -39 0 -6 50 -52 110 -101 61 -50 123 -105 139 -122 35 -37 40 -37 127
-9 l67 21 8 124 9 124 75 -106 75 -105 64 6 c111 11 107 8 155 121 24 56 60
131 80 168 20 36 36 68 36 70 0 3 -47 5 -104 5 l-103 0 -26 -92z"/>
<path d="M4190 6325 c0 -2 16 -34 36 -70 20 -37 56 -112 80 -168 48 -113 44
-110 155 -121 l64 -6 75 105 75 106 9 -124 8 -124 67 -21 c87 -28 92 -28 127
9 16 17 79 72 139 122 61 49 110 95 110 101 0 6 -33 23 -74 39 l-74 28 -29
-28 c-17 -15 -56 -61 -89 -101 l-59 -73 0 99 c0 161 1 158 -89 177 -42 9 -83
19 -92 21 -12 3 -35 -24 -81 -93 -36 -54 -70 -106 -75 -117 -9 -16 -11 -13
-17 20 -4 22 -19 81 -33 132 l-26 92 -103 0 c-57 0 -104 -2 -104 -5z"/>
<path d="M6978 6000 c-197 -130 -220 -158 -221 -263 0 -82 23 -158 88 -292 62
-126 116 -194 178 -224 69 -34 116 -28 314 40 98 34 179 62 179 63 4 3 -39
132 -45 139 -4 4 -89 -24 -189 -63 -99 -38 -193 -70 -207 -70 -68 0 -142 69
-192 179 -51 114 -51 197 1 258 13 15 96 71 185 123 88 52 161 99 161 103 0
16 -65 117 -75 117 -5 0 -85 -50 -177 -110z"/>
<path d="M3030 6029 c-69 -14 -146 -56 -211 -117 -121 -112 -141 -231 -51
-300 30 -23 45 -27 102 -27 55 0 77 6 133 34 190 97 289 247 227 348 -33 55
-112 80 -200 62z m53 -129 c50 -56 29 -126 -54 -182 -86 -58 -189 -17 -189 75
0 39 46 93 102 121 64 33 101 29 141 -14z"/>
<path d="M5195 6031 c-48 -12 -75 -30 -95 -64 -62 -101 37 -251 227 -348 56
-28 78 -34 133 -34 57 0 72 4 102 27 88 67 70 186 -43 294 -104 97 -233 147
-324 125z m193 -117 c56 -28 102 -83 102 -121 0 -92 -103 -133 -189 -75 -79
53 -102 122 -60 176 41 51 75 56 147 20z"/>
<path d="M951 5699 c-18 -40 -30 -77 -27 -83 11 -28 151 -192 250 -293 l109
-113 -56 0 c-68 0 -250 -23 -372 -48 l-90 -18 -17 -64 c-30 -116 -31 -114 82
-214 112 -99 246 -207 291 -233 16 -10 29 -20 29 -23 0 -4 -24 -12 -52 -20
-66 -16 -191 -64 -329 -124 -121 -53 -119 -50 -119 -190 0 -79 -9 -79 115 -6
107 61 325 167 413 201 35 13 67 31 72 39 4 8 10 47 14 85 l7 70 -83 67 c-46
36 -114 94 -153 128 -38 35 -96 84 -127 110 -51 43 -54 49 -35 53 21 5 398 64
463 73 28 4 32 10 53 74 l22 69 -79 90 c-85 96 -236 291 -297 384 -21 31 -41
57 -45 57 -4 0 -22 -32 -39 -71z"/>
<path d="M2506 5619 c-111 -119 -166 -219 -166 -299 0 -74 46 -100 114 -65 36
19 36 19 36 -9 0 -25 77 -149 88 -142 4 2 21 30 37 60 l30 57 -27 49 c-34 61
-35 87 -5 127 l22 30 45 -38 c25 -22 50 -39 55 -39 13 0 88 88 83 98 -6 16
-236 232 -246 232 -5 0 -35 -27 -66 -61z m45 -123 l28 -24 -35 -46 c-37 -49
-80 -69 -95 -45 -5 8 -6 23 -2 34 7 23 61 105 70 105 3 0 18 -11 34 -24z"/>
<path d="M5628 5565 c-65 -63 -118 -117 -118 -120 0 -12 74 -95 85 -95 5 0 30
17 55 39 l45 38 22 -30 c30 -40 29 -66 -4 -127 l-28 -49 30 -57 c17 -30 33
-58 37 -60 11 -7 88 117 88 142 0 28 0 28 36 9 68 -35 114 -8 114 67 0 55 -19
103 -71 179 -47 70 -147 179 -163 179 -6 -1 -64 -52 -128 -115z m220 -87 c35
-52 44 -78 33 -97 -15 -24 -58 -4 -95 45 l-35 46 27 24 c15 13 30 24 34 24 4
0 20 -19 36 -42z"/>
<path d="M2208 5155 c-17 -37 -29 -67 -27 -69 2 -2 30 -17 63 -33 l59 -30 -74
-40 c-111 -61 -117 -68 -144 -162 -14 -47 -23 -86 -21 -88 2 -2 43 28 92 66
48 39 93 71 99 71 6 0 25 -30 43 -67 17 -38 46 -93 64 -123 l32 -55 23 75 23
75 -35 65 c-55 105 -58 118 -34 131 16 8 31 6 69 -10 27 -12 51 -21 55 -21 11
0 56 113 48 121 -14 14 -282 159 -293 159 -6 0 -25 -29 -42 -65z"/>
<path d="M5930 5144 c-74 -41 -139 -79 -143 -83 -8 -8 37 -121 48 -121 4 0 28
9 55 21 38 16 52 18 69 9 20 -10 20 -12 6 -47 -9 -20 -29 -61 -45 -91 l-30
-55 22 -74 c21 -74 22 -75 39 -52 9 13 39 67 65 121 27 54 54 98 60 98 6 0 50
-32 98 -71 49 -38 90 -68 92 -66 2 2 -7 41 -21 88 -27 94 -33 101 -144 162
l-74 40 59 30 c33 16 61 31 63 33 8 7 -59 134 -71 134 -7 -1 -74 -35 -148 -76z"/>
<path d="M7395 4996 c-36 -36 -54 -115 -66 -281 -15 -230 -45 -311 -106 -289
-59 20 -101 159 -110 362 -6 130 -7 134 -30 143 -39 15 -43 11 -43 -39 0 -65
26 -285 46 -379 38 -190 118 -281 207 -238 67 31 99 130 117 355 12 156 22
200 50 225 20 18 21 18 48 -2 60 -44 99 -222 87 -394 -6 -96 -6 -96 20 -113
15 -10 30 -15 33 -11 13 12 14 219 2 313 -30 236 -100 372 -191 372 -29 0 -47
-7 -64 -24z"/>
<path d="M2027 4552 c-3 -4 -9 -42 -13 -83 l-6 -76 103 -42 c104 -43 136 -61
109 -61 -8 0 -61 -14 -117 -31 -115 -36 -117 -38 -106 -143 7 -66 1 -62 143
-97 81 -20 90 -24 69 -33 -91 -37 -190 -87 -195 -99 -5 -14 11 -136 20 -144 3
-3 58 31 123 74 65 43 136 89 158 101 l40 23 -5 71 -5 71 -107 31 c-60 17
-108 33 -108 36 0 3 44 20 98 39 53 19 103 38 110 44 7 6 12 35 12 76 0 67 0
67 -35 84 -31 15 -202 116 -262 154 -11 8 -24 10 -26 5z"/>
<path d="M6192 4495 c-57 -35 -128 -76 -157 -92 l-55 -28 0 -71 0 -72 110 -38
c61 -22 110 -41 110 -44 0 -3 -48 -19 -107 -36 l-108 -31 -5 -71 -5 -71 40
-23 c22 -12 93 -58 158 -101 65 -43 120 -77 123 -74 9 8 25 130 20 144 -5 12
-104 62 -195 99 -21 9 -12 13 69 33 142 35 136 31 143 97 11 105 9 107 -106
143 -56 17 -109 31 -116 31 -28 0 4 18 108 61 l103 42 -6 76 c-4 42 -10 79
-14 83 -4 4 -53 -22 -110 -57z"/>
<path d="M650 4054 c0 -140 -2 -137 119 -190 138 -60 263 -108 329 -124 28 -8
52 -16 52 -20 0 -3 -13 -13 -29 -23 -45 -26 -179 -134 -291 -233 -113 -100
-112 -98 -82 -214 l17 -64 90 -18 c122 -25 304 -48 372 -48 l56 0 -109 -112
c-99 -102 -239 -266 -250 -294 -6 -13 55 -154 66 -154 4 0 24 26 45 58 61 92
212 287 297 383 l79 90 -22 69 c-21 64 -25 70 -53 74 -65 9 -442 68 -463 73
-19 4 -16 10 35 53 31 26 89 75 127 110 39 34 107 92 153 128 l83 67 -7 70
c-4 38 -10 77 -14 85 -5 8 -37 26 -72 39 -88 34 -306 140 -413 201 -124 73
-115 73 -115 -6z"/>
<path d="M7215 4060 c-53 -21 -104 -117 -129 -243 -20 -94 -46 -314 -46 -379
0 -50 4 -54 43 -39 23 9 24 13 30 143 9 203 51 342 110 362 61 22 91 -59 106
-289 16 -233 47 -305 130 -305 91 0 161 136 191 372 12 94 11 301 -2 313 -3 4
-18 -1 -33 -11 -26 -17 -26 -17 -20 -113 12 -172 -27 -350 -87 -394 -27 -20
-28 -20 -48 -2 -28 25 -38 69 -50 225 -18 223 -51 324 -116 355 -36 17 -49 18
-79 5z"/>
<path d="M2216 3720 c-87 -21 -161 -41 -164 -45 -8 -7 17 -127 29 -139 7 -8
217 49 315 85 20 7 20 8 5 73 -9 36 -18 65 -21 65 -3 -1 -76 -18 -164 -39z"/>
<path d="M5929 3694 c-15 -65 -15 -66 5 -73 98 -36 308 -93 315 -85 12 12 37
132 29 139 -3 4 -73 22 -154 41 -82 19 -156 37 -164 39 -11 4 -19 -12 -31 -61z"/>
<path d="M2126 3463 c-14 -4 -17 -11 -13 -31 20 -101 169 -425 197 -429 8 -2
24 4 35 12 19 15 19 17 -18 90 l-36 74 119 63 c66 35 120 68 120 73 0 15 -44
115 -51 115 -3 0 -61 -25 -129 -55 -68 -30 -124 -54 -125 -52 -1 1 -13 34 -27
72 -25 69 -35 78 -72 68z"/>
<path d="M6150 3444 c-6 -16 -18 -49 -27 -74 -9 -25 -17 -46 -18 -47 -1 -2
-57 22 -125 52 -68 30 -126 55 -129 55 -7 0 -51 -100 -51 -115 0 -5 54 -38
120 -73 l119 -63 -36 -74 c-37 -73 -37 -75 -18 -90 11 -8 27 -14 35 -12 31 5
219 431 200 451 -3 2 -17 7 -32 11 -24 6 -29 3 -38 -21z"/>
<path d="M2482 3045 c-78 -52 -142 -100 -142 -106 0 -16 73 -119 85 -119 6 0
30 16 54 35 24 19 45 35 46 35 1 0 31 -35 68 -79 l65 -78 -46 -46 -47 -47 55
-55 c30 -30 58 -54 61 -53 4 2 60 61 124 131 l118 129 -44 44 c-24 24 -48 44
-53 44 -6 0 -32 -21 -58 -47 -26 -26 -49 -45 -51 -42 -2 2 -29 34 -60 72 -32
37 -57 72 -57 77 0 5 23 26 50 47 28 20 50 41 50 45 0 7 -69 108 -73 108 -1 0
-66 -43 -145 -95z"/>
<path d="M5666 3090 c-20 -28 -36 -54 -36 -58 0 -4 23 -25 50 -45 28 -21 50
-42 50 -47 0 -5 -25 -40 -57 -77 -31 -38 -58 -70 -60 -72 -2 -3 -25 16 -51 42
-26 26 -52 47 -58 47 -5 0 -29 -20 -53 -44 l-44 -44 118 -129 c64 -70 120
-129 124 -131 3 -1 31 23 61 53 l55 55 -47 47 -46 46 65 78 c37 44 67 79 68
79 1 0 22 -16 46 -35 24 -19 49 -35 54 -35 12 0 85 103 85 119 0 8 -203 151
-277 194 -6 4 -26 -13 -47 -43z"/>
<path d="M7022 3109 c-61 -31 -115 -99 -177 -224 -65 -134 -88 -210 -88 -292
1 -105 24 -133 216 -259 89 -59 169 -109 177 -111 10 -3 27 16 48 51 17 30 32
58 32 63 0 4 -73 51 -161 103 -89 52 -172 108 -185 123 -52 61 -52 144 -1 258
50 110 124 179 192 179 14 0 108 -32 207 -70 100 -39 185 -67 189 -63 6 7 49
136 45 139 0 1 -81 29 -179 63 -199 68 -246 74 -315 40z"/>
<path d="M1323 2646 c-102 -33 -154 -106 -161 -225 -7 -123 33 -240 128 -381
53 -79 173 -188 239 -218 79 -37 174 -42 236 -12 119 57 172 197 129 341 -51
172 -234 408 -366 473 -66 32 -147 41 -205 22z m223 -141 c71 -35 124 -84 178
-162 106 -156 114 -288 22 -379 -95 -96 -231 -74 -357 57 -111 116 -165 279
-125 382 43 115 167 159 282 102z"/>
<path d="M3089 2544 c-26 -17 -149 -189 -149 -209 0 -9 120 -85 134 -85 2 0
28 41 56 90 58 102 71 117 106 126 36 9 129 -39 143 -74 10 -25 7 -41 -34
-136 -26 -59 -45 -109 -43 -111 6 -5 113 -42 140 -49 26 -6 27 -4 63 105 28
83 35 119 30 145 -10 53 -72 109 -183 162 -82 40 -107 47 -167 50 -52 2 -77
-2 -96 -14z"/>
<path d="M5060 2546 c-78 -29 -183 -89 -220 -126 -57 -57 -59 -87 -15 -219 36
-109 37 -111 63 -105 27 7 134 44 140 49 2 2 -17 52 -43 111 -41 95 -44 111
-34 136 14 35 107 83 143 74 35 -9 48 -24 106 -126 28 -49 54 -90 56 -90 14 0
134 76 134 85 0 21 -124 193 -150 209 -34 19 -129 20 -180 2z"/>
<path d="M3654 2364 c3 -9 6 -24 6 -33 0 -16 13 -19 98 -24 142 -10 221 -42
160 -66 -13 -5 -78 -13 -145 -19 -141 -11 -173 -24 -173 -73 0 -67 102 -118
275 -139 81 -10 205 -6 205 7 0 3 -7 17 -16 31 -15 26 -18 27 -117 28 -73 0
-113 5 -141 17 -57 25 -36 38 76 48 173 16 238 43 238 99 0 58 -65 91 -235
120 -148 25 -240 27 -231 4z"/>
<path d="M4437 2359 c-162 -28 -227 -62 -227 -119 0 -56 65 -83 238 -99 112
-10 133 -23 76 -48 -28 -12 -68 -17 -141 -17 -99 -1 -102 -2 -117 -28 -9 -14
-16 -28 -16 -31 0 -13 124 -17 205 -7 173 21 275 72 275 139 0 49 -32 62 -173
73 -67 6 -132 14 -145 19 -61 24 18 56 160 66 85 5 98 8 98 24 0 9 3 24 6 33
5 14 -4 16 -62 15 -38 0 -118 -9 -177 -20z"/>
<path d="M6305 2090 l-39 -40 97 -98 98 -99 -98 -86 c-80 -70 -280 -227 -289
-227 -1 0 -37 48 -80 108 -43 59 -79 109 -80 111 -8 9 -103 -62 -97 -73 10
-17 315 -470 322 -478 5 -6 84 39 119 68 2 1 -21 35 -50 76 -30 40 -64 87 -75
104 l-22 30 104 79 c58 43 146 115 197 161 l93 82 92 -91 93 -91 45 44 c25 24
45 49 45 56 0 13 -415 404 -428 404 -4 0 -26 -18 -47 -40z"/>
<path d="M1971 1733 l-195 -217 60 -54 c145 -132 325 -243 417 -257 57 -9 110
8 137 42 36 46 23 153 -24 192 -22 18 -20 30 4 24 42 -11 92 9 177 74 49 36
92 69 96 73 5 4 -15 22 -44 40 l-52 32 -82 -56 c-105 -72 -133 -82 -182 -65
-37 11 -114 59 -161 99 l-24 20 81 97 c45 53 81 100 80 103 0 7 -79 70 -88 70
-3 0 -93 -98 -200 -217z m188 -182 c143 -110 181 -209 93 -242 -41 -16 -114 7
-195 62 -106 70 -131 94 -121 111 26 43 120 146 129 140 5 -3 48 -35 94 -71z"/>
<path d="M2752 1487 c-18 -34 -80 -153 -138 -265 l-106 -202 56 -25 c31 -14
61 -25 67 -25 5 0 36 55 67 122 l58 122 36 -64 c34 -62 196 -287 230 -321 17
-17 177 -64 186 -54 3 3 -15 27 -40 53 -57 60 -163 186 -206 245 l-32 45 47
18 c156 57 430 181 420 190 -2 2 -36 13 -74 24 l-70 19 -109 -48 c-60 -27
-149 -63 -199 -80 l-89 -32 -18 23 c-44 59 -44 60 5 164 26 52 47 98 47 100 0
3 -96 54 -102 54 -2 0 -18 -28 -36 -63z"/>
<path d="M5405 1488 c-27 -12 -51 -22 -52 -23 -2 -1 45 -108 103 -240 60 -137
101 -242 96 -247 -5 -5 -71 -30 -148 -57 -138 -49 -156 -61 -137 -95 15 -26
296 76 558 204 88 43 168 84 178 92 18 13 18 15 0 36 l-18 23 -135 -70 c-74
-39 -141 -71 -148 -71 -8 0 -63 103 -127 235 -63 129 -116 235 -117 235 -2 -1
-25 -10 -53 -22z"/>
<path d="M4917 1328 c-29 -8 -37 -14 -32 -26 3 -9 36 -136 72 -282 36 -146 67
-267 69 -269 5 -6 124 21 130 30 3 6 -77 293 -152 542 -6 19 -29 20 -87 5z"/>
<path d="M4440 1253 l-56 -4 -43 -127 c-63 -187 -130 -369 -130 -354 -1 6 -24
63 -52 125 -29 61 -73 164 -100 227 l-48 115 -67 9 c-42 6 -69 6 -71 0 -10
-31 -159 -281 -238 -399 -105 -158 -106 -152 7 -157 l62 -3 43 70 c24 39 78
140 121 226 l79 155 12 -45 c16 -60 76 -209 136 -338 l48 -103 79 0 79 0 18
44 c41 94 110 296 127 368 l18 77 49 -92 c27 -51 89 -151 138 -223 l89 -131
70 12 c39 7 73 15 76 18 3 3 -38 61 -91 129 -53 68 -137 187 -188 265 -51 78
-96 141 -102 141 -5 -1 -35 -3 -65 -5z"/>
</g>
</svg>
